<svg width="54" height="102" viewBox="0 0 54 102" fill="none" xmlns="http://www.w3.org/2000/svg">
<g clip-path="url(#clip0_50_48)">
<path d="M54 0.00627135V8.50575C53.822 8.5165 53.6439 8.538 53.4658 8.538C48.1448 8.53979 42.8238 8.53979 37.5027 8.53979C37.313 8.53979 37.1232 8.53979 36.911 8.53979V17.0446H45.2527V25.545H36.9101V33.9639H53.8076V58.3146H45.2725V42.4741H36.8696V59.5241H44.0989V68.0962H36.9146V76.5903H53.8444C53.8444 76.7936 53.8444 76.9415 53.8444 77.0884C53.8444 85.2438 53.8444 93.3984 53.8444 101.554C53.8444 101.703 53.83 101.851 53.8229 102H28.4371C28.4245 101.838 28.4011 101.676 28.4011 101.513C28.3993 67.8462 28.3993 34.1789 28.3993 0.512459V0C28.8939 0 29.339 0 29.7851 0C37.857 0.00179182 45.929 0.00447954 54.0009 0.00627135H54ZM45.2635 85.027H36.8606V93.5507H45.2635V85.027Z" fill="#FFD600"/>
<path d="M17.3147 102C17.3111 99.1375 17.3067 96.2751 17.304 93.4127C17.304 93.3849 17.3228 93.3571 17.3426 93.3025H25.7455V101.999H17.3138L17.3147 102Z" fill="#FFD600"/>
<path d="M8.70507 30.1088V55.6242H25.6943V84.735H17.2428V64.3513H0.126831V30.1088H8.70507Z" fill="#FFD600"/>
<path d="M25.7059 19.365V53.2993H16.9982V27.9191H0V19.3659H25.7059V19.365Z" fill="#FFD600"/>
<path d="M25.7014 16.9586H17.0009V8.51201H8.26439V16.9479H0.0098877V0.108398H25.7014V16.9586Z" fill="#FFD600"/>
<path d="M53.8075 68.0737H45.3237V59.5339H53.8075V68.0737Z" fill="#FFD600"/>
</g>
<defs>
<clipPath id="clip0_50_48">
<rect width="54" height="102" fill="white"/>
</clipPath>
</defs>
</svg>
