<svg id="Layer_1" data-name="Layer 1" xmlns="http://www.w3.org/2000/svg" viewBox="0 0 1072.22 341.63"><path d="M279.3,84h54.42c51.28,0,90,37.48,90,85.85s-38.69,85.87-90,85.87H279.3Zm54.42,145.6c36.77,0,61.43-25.88,61.43-59.75s-24.66-59.74-61.43-59.74H307.36V229.58Z" transform="translate(0 0.01)"/><path d="M421.11,195.23c0-34.59,27.09-62.4,62.9-62.4s62.88,27.81,62.88,62.4S519.8,257.64,484,257.64s-62.9-27.83-62.9-62.41m98.44,0c0-21.28-14.5-37.49-35.54-37.49S448.2,174,448.2,195.23,463,232.73,484,232.73s35.54-16.21,35.54-37.5" transform="translate(0 0.01)"/><polygon points="546.77 83.99 573.38 83.99 573.38 189.93 628.84 134.79 661.5 134.79 603.86 191.86 660.46 255.72 626.83 255.72 573.38 195.25 573.38 255.72 546.77 255.72 546.77 83.99"/><path d="M738.26,187.49c0-16.93-8.22-30-24.66-30-11.61,0-21.29,6.77-26.13,17.9v80.3H660.86V134.81h26.61v11.12c8.23-9.19,20.32-13.06,31.69-13.06,16.44,0,28.3,7,35.8,17.9,8.7-11.16,23.21-18,39.65-18,30.72,0,47.17,21.29,47.17,51.52v71.35h-26.6V187.49c0-16.93-8-30-24.43-30-11.36,0-21,6-26.36,18.87.24,2.66.48,5.32.48,8v71.35H738.26Z" transform="translate(0 0.01)"/><path d="M962.66,84h26.61v62.15c8.46-9.43,21.28-13.3,34.1-13.3,29.75,0,48.85,20.56,48.85,51.52V255.7h-26.61V187.49c0-17.17-9.66-30-27.56-30-13.31,0-23.71,7.26-28.78,19.84v78.36H962.66Z" transform="translate(0 0.01)"/><path d="M902.87,256.75c-35.56,0-61.09-26.25-61.09-62.05,0-35.31,24.58-62,61.34-62,36.5,0,62,27.92,59.64,68.49h-95c1,18.13,14.79,32.45,36,32.45,13.12,0,24.58-5.25,30.07-16.7h27.44c-6.68,22.43-28.16,39.85-58.46,39.85m-34.13-74.21h65.93c-4.06-19.34-17.66-27.92-32.21-27.92-16.47,0-30.07,9.54-33.65,27.92" transform="translate(0 0.01)"/><path d="M205.49,339.46,79.19,213.16a3.65,3.65,0,0,1,0-5.15h0L205.49,81.69c5.74-5.73,15.09,1,11.47,8.26,0,0-45.53,78.47-63.75,111.93a18.1,18.1,0,0,0,0,17.4C171.43,252.74,217,331.21,217,331.21c3.62,7.26-5.73,14-11.47,8.25" transform="translate(0 0.01)"/><path d="M12.27,2.15,138.61,128.46a3.65,3.65,0,0,1,0,5.15h0L12.27,259.93c-5.74,5.73-15.09-1-11.46-8.26,0,0,44.09-78.77,61.85-112.07a18.15,18.15,0,0,0,0-17.12C44.9,89.18.81,10.41.81,10.41c-3.63-7.26,5.72-14,11.46-8.26" transform="translate(0 0.01)"/></svg>